<svg xmlns="http://www.w3.org/2000/svg" width="111" height="115" viewBox="0 0 111 115">
    <path fill="#55BBEB" fill-rule="evenodd" d="M101.56 54.19c.033-8.212 3.055-15.306 8.975-21.079.02-.024.041-.04.062-.057.114-.197.232-.385.34-.583a.37.37 0 0 0 .03-.36c-.119-.255-.238-.512-.37-.772a56.276 56.276 0 0 0-8.514-12.226 57.995 57.995 0 0 0-10.627-9.145 58.52 58.52 0 0 0-18.245-8.12 60.88 60.88 0 0 0-8.518-1.51 72.722 72.722 0 0 0-3.651-.27c-2.633-.14-5.268-.051-7.894.167-.035.005-.066.005-.097.01-1.273.167-2.553.29-3.82.483a59.03 59.03 0 0 0-7.507 1.67 58.561 58.561 0 0 0-12.29 5.144A58.22 58.22 0 0 0 14.15 19.83a56.65 56.65 0 0 0-8.802 13.281 54.897 54.897 0 0 0-3.408 9.134c-.682 2.503-1.217 5.02-1.536 7.598-.032.238-.054.48-.084.722-.144 1.42-.66 7.393.034 13.713.046.367.095.738.146 1.103.223 1.658.539 3.303.92 4.928a57.46 57.46 0 0 0 4.17 11.865 57.292 57.292 0 0 0 9.086 13.547 57.488 57.488 0 0 0 10.806 9.371 57.832 57.832 0 0 0 15.558 7.37 57.043 57.043 0 0 0 7.49 1.736c.95.151 1.901.307 2.862.398.99.093 1.977.238 2.968.282 1.832.087 3.658.172 5.492.087 1.252-.054 2.5-.075 3.75-.188a80.704 80.704 0 0 0 4.585-.582 57.498 57.498 0 0 0 7.305-1.684 58.923 58.923 0 0 0 23.561-13.54 57.343 57.343 0 0 0 2.506-2.514V54.189z"/>
</svg>
