<svg xmlns="http://www.w3.org/2000/svg" width="30" height="31" viewBox="0 0 30 31">
    <path fill="#000" fill-rule="evenodd" d="M15.072 30.333C6.875 30.333.23 23.647.23 15.4S6.875.467 15.072.467c8.198 0 14.844 6.686 14.844 14.933S23.27 30.333 15.072 30.333zm0-26.353c-6.269 0-11.35 5.113-11.35 11.42 0 6.307 5.081 11.42 11.35 11.42 6.27 0 11.351-5.113 11.351-11.42 0-6.307-5.082-11.42-11.35-11.42zm7.713 13.177h-7.567a1.896 1.896 0 0 1-1.892-1.883V7.638c0-1.05.847-1.9 1.892-1.9s1.892.85 1.892 1.9v5.718h5.675c1.045 0 1.892.85 1.892 1.9 0 1.05-.847 1.9-1.892 1.9z"/>
</svg>
