<svg xmlns="http://www.w3.org/2000/svg" width="117" height="100" viewBox="0 0 117 100">
    <g fill="#31006D" fill-opacity=".25" fill-rule="evenodd">
        <path d="M40.5 0h-27C9.75 0 6.562 1.326 3.937 3.977 1.313 6.629 0 9.848 0 13.637v27.272c0 3.789 1.312 7.008 3.937 9.659 2.625 2.65 5.813 3.977 9.563 3.977h15.75c1.875 0 3.469.663 4.781 1.989 1.313 1.324 1.97 2.935 1.97 4.83v2.271c0 5.02-1.76 9.303-5.274 12.855-3.516 3.55-7.758 5.326-12.727 5.326h-4.5c-1.22 0-2.274.45-3.165 1.35C9.445 84.065 9 85.13 9 86.362v9.092c0 1.229.445 2.297 1.335 3.196.892.899 1.945 1.35 3.165 1.35H18c4.875 0 9.528-.96 13.958-2.877 4.43-1.917 8.261-4.51 11.496-7.778 3.234-3.267 5.8-7.137 7.699-11.612C53.05 73.26 54 68.56 54 63.635v-50c0-3.788-1.313-7.007-3.937-9.658C47.438 1.326 44.25 0 40.5 0zM113.062 3.977C110.437 1.326 107.25 0 103.499 0h-27c-3.75 0-6.938 1.326-9.562 3.977C64.312 6.629 63 9.848 63 13.637v27.272c0 3.789 1.312 7.008 3.937 9.659 2.624 2.65 5.812 3.977 9.562 3.977h15.75c1.875 0 3.47.663 4.782 1.989 1.312 1.325 1.97 2.935 1.97 4.83v2.271c0 5.02-1.759 9.303-5.275 12.855C90.21 80.04 85.97 81.816 81 81.816h-4.501c-1.219 0-2.274.45-3.164 1.35-.89.899-1.337 1.965-1.337 3.196v9.092c0 1.229.446 2.297 1.337 3.196.89.899 1.945 1.35 3.164 1.35h4.5c4.875 0 9.528-.96 13.958-2.877 4.43-1.917 8.26-4.51 11.495-7.778 3.235-3.267 5.803-7.138 7.7-11.612C116.05 73.26 117 68.56 117 63.635v-50c0-3.788-1.312-7.007-3.938-9.658z"/>
    </g>
</svg>
