<svg xmlns="http://www.w3.org/2000/svg" width="108" height="23" viewBox="0 0 108 23">
    <path fill="#EE7719" fill-rule="evenodd" d="M107.037 18.21c-4.889-4.06-8.411-8.924-11.4-14.352-.802-1.458-2.644-1.6-4.057-1.003-7.371 3.108-12.466 8.997-18.695 13.598-2.962-3.058-5.746-6.282-8.72-9.327-2.023-2.075-6.248-7.287-9.843-6.89-8.124.894-14.043 9.507-19.796 15.339C31.202 9.197 26.944-.125 19.324 0 10.12.151 6.172 11.248.815 16.72c-2.59 2.644 1.595 6.611 4.194 3.956 4.407-4.5 7.064-10.902 12.29-14.644 5.14-3.679 12.092 12.718 13.898 15.57 1.038 1.64 3.207 1.73 4.658.565 3.097-2.484 5.742-5.5 8.533-8.276 1.398-1.39 7.425-8.432 9.566-8.094 2.88.456 6.9 6.177 8.715 8.094 2.595 2.743 5.038 5.632 7.747 8.276.865.845 2.53 1.146 3.594.439 6.26-4.16 11.243-9.963 17.845-13.594 2.944 4.912 6.446 9.382 10.988 13.155 2.858 2.375 7.07-1.566 4.194-3.955"/>
</svg>
