<svg xmlns="http://www.w3.org/2000/svg" width="117" height="100" viewBox="0 0 117 100">
    <g fill="#31006D" fill-opacity=".25" fill-rule="evenodd">
        <path d="M76.5 100h27c3.75 0 6.938-1.326 9.563-3.977 2.624-2.652 3.937-5.871 3.937-9.66V59.091c0-3.789-1.312-7.008-3.937-9.659-2.625-2.65-5.813-3.977-9.563-3.977H87.75c-1.875 0-3.469-.663-4.781-1.989-1.313-1.324-1.97-2.935-1.97-4.83v-2.271c0-5.02 1.76-9.303 5.274-12.855 3.516-3.55 7.758-5.326 12.727-5.326h4.5c1.22 0 2.274-.45 3.165-1.35.89-.899 1.335-1.965 1.335-3.196V4.546c0-1.229-.445-2.297-1.335-3.196C105.773.451 104.72 0 103.5 0H99c-4.875 0-9.528.96-13.958 2.877-4.43 1.917-8.261 4.51-11.496 7.778-3.234 3.267-5.8 7.137-7.699 11.612C63.95 26.74 63 31.44 63 36.365v50c0 3.788 1.313 7.007 3.937 9.658C69.562 98.674 72.75 100 76.5 100zM3.938 96.023C6.563 98.674 9.75 100 13.501 100h27c3.75 0 6.938-1.326 9.562-3.977C52.688 93.371 54 90.152 54 86.363V59.091c0-3.789-1.312-7.008-3.937-9.659-2.624-2.65-5.812-3.977-9.562-3.977h-15.75c-1.875 0-3.47-.663-4.782-1.989-1.312-1.325-1.97-2.935-1.97-4.83v-2.271c0-5.02 1.759-9.303 5.275-12.855C26.79 19.96 31.03 18.184 36 18.184h4.501c1.219 0 2.274-.45 3.164-1.35.89-.899 1.337-1.965 1.337-3.196V4.546c0-1.229-.446-2.297-1.337-3.196C42.775.451 41.72 0 40.5 0h-4.5c-4.875 0-9.528.96-13.958 2.877-4.43 1.917-8.26 4.51-11.495 7.778-3.235 3.267-5.803 7.138-7.7 11.612C.95 26.74 0 31.44 0 36.365v50c0 3.788 1.312 7.007 3.938 9.658z"/>
    </g>
</svg>
