<svg xmlns="http://www.w3.org/2000/svg" width="216" height="209" viewBox="0 0 216 209">
    <path fill="#55BBEB" fill-rule="evenodd" d="M197.629 91.08c.066-15.922 5.947-29.679 17.466-40.873.04-.046.08-.078.12-.111.223-.382.452-.746.662-1.13a.716.716 0 0 0 .057-.699c-.23-.493-.461-.993-.719-1.496-4.446-8.617-9.986-16.518-16.567-23.708-6.158-6.716-13.04-12.65-20.68-17.735-10.908-7.262-22.734-12.514-35.503-15.745a118.845 118.845 0 0 0-16.576-2.926c-2.368-.24-4.738-.406-7.105-.527-5.124-.271-10.252-.097-15.361.326-.068.01-.127.01-.188.017-2.479.326-4.97.565-7.436.94-4.943.77-9.81 1.835-14.606 3.236A114.177 114.177 0 0 0 57.278.625C45.982 6.91 36.061 14.868 27.534 24.453c-6.933 7.806-12.658 16.384-17.128 25.754-2.729 5.713-4.96 11.617-6.63 17.712-1.327 4.853-2.37 9.736-2.99 14.734-.062.46-.105.93-.163 1.4-.281 2.754-1.285 14.336.065 26.591.09.712.185 1.43.284 2.137.435 3.217 1.05 6.407 1.792 9.557 1.87 7.957 4.547 15.625 8.112 23.008a111.072 111.072 0 0 0 17.684 26.27c6.24 6.906 13.24 12.987 21.026 18.172a112.714 112.714 0 0 0 30.276 14.29 111.333 111.333 0 0 0 14.574 3.366c1.85.294 3.7.596 5.57.773 1.928.18 3.846.46 5.776.547 3.565.167 7.118.333 10.688.167 2.436-.104 4.865-.144 7.298-.364 2.988-.288 5.955-.672 8.92-1.129 4.816-.768 9.548-1.88 14.215-3.264a114.131 114.131 0 0 0 22.223-9.206 114.647 114.647 0 0 0 23.626-17.05 111.39 111.39 0 0 0 4.877-4.876V91.08z"/>
</svg>
