<svg xmlns="http://www.w3.org/2000/svg" width="326" height="336" viewBox="0 0 326 336">
    <path fill="#55BBEB" fill-rule="evenodd" d="M298.273 158.326c.1-23.989 8.976-44.717 26.362-61.583.06-.07.12-.118.18-.168.337-.575.682-1.124 1-1.702.2-.322.252-.694.086-1.053-.348-.744-.696-1.497-1.086-2.255-6.71-12.983-15.071-24.887-25.004-35.721-9.294-10.119-19.68-19.06-31.21-26.722C252.138 18.18 234.288 10.266 215.017 5.4A179.642 179.642 0 0 0 189.999.99a214.673 214.673 0 0 0-10.724-.794c-7.732-.409-15.471-.146-23.183.49-.103.015-.192.015-.283.027-3.741.491-7.5.852-11.223 1.415-7.46 1.16-14.807 2.766-22.044 4.877a172.482 172.482 0 0 0-36.094 15.03c-17.05 9.471-32.023 21.462-44.891 35.903C31.092 69.7 22.452 82.624 15.707 96.743c-4.12 8.607-7.486 17.503-10.009 26.687-2.002 7.312-3.575 14.668-4.512 22.2-.093.694-.159 1.402-.246 2.109-.424 4.15-1.938 21.6.098 40.065.137 1.073.28 2.156.43 3.22.655 4.847 1.583 9.654 2.703 14.4 2.822 11.988 6.863 23.543 12.244 34.666 6.987 14.424 15.859 27.62 26.689 39.583 9.42 10.405 19.983 19.568 31.734 27.38a170.243 170.243 0 0 0 45.695 21.532c7.22 2.17 14.541 3.884 21.996 5.07 2.793.443 5.584.898 8.406 1.166 2.91.27 5.805.694 8.717.824 5.381.252 10.744.501 16.13.252 3.678-.157 7.344-.218 11.015-.55 4.51-.434 8.99-1.012 13.463-1.7 7.27-1.158 14.412-2.834 21.455-4.918 11.683-3.456 22.871-8.07 33.54-13.87a173.024 173.024 0 0 0 35.658-25.692 167.975 167.975 0 0 0 7.36-7.346V158.326z"/>
</svg>
