<svg xmlns="http://www.w3.org/2000/svg" width="225" height="184" viewBox="0 0 225 184">
    <g fill="#EE7719" fill-rule="evenodd">
        <path d="M55.118 133.394c1.392-2.316 1.056-5.323-.94-7.176a133.536 133.536 0 0 1-17.883-20.188c-1.815-2.526-5.349-3.03-7.889-1.12-2.541 1.918-3.13 5.512-1.312 8.047a145.514 145.514 0 0 0 19.353 21.854c2.287 2.091 5.852 1.874 7.993-.494.26-.29.485-.602.678-.923M162.347 171.944a5.47 5.47 0 0 0 .779-3.103 5.438 5.438 0 0 0-5.71-5.2c-8.765.463-17.597.047-26.253-1.216-2.979-.438-5.774 1.643-6.241 4.653-.45 2.996 1.603 5.786 4.594 6.23a143.625 143.625 0 0 0 28.391 1.31 5.492 5.492 0 0 0 4.44-2.674M105.863 163.465c.175-.292.322-.6.436-.929.956-2.739-.6-5.825-3.467-6.89a144.589 144.589 0 0 1-23.968-11.558l-.28-.168c-2.621-1.575-5.962-.855-7.454 1.628-1.484 2.47-.555 5.764 2.065 7.34l.28.168A156.43 156.43 0 0 0 99.39 165.55c2.512.938 5.214.008 6.473-2.086M26.485 90.39c.931-1.55 1.07-3.53.196-5.313a142.042 142.042 0 0 1-9.622-25.735c-.815-3.046-3.963-4.946-7.033-4.242a5.452 5.452 0 0 0-4.1 6.775 153.94 153.94 0 0 0 10.41 27.833c1.396 2.847 4.839 4.126 7.692 2.843a5.43 5.43 0 0 0 2.457-2.162M11.267 35.199c.52-.865.792-1.902.716-2.993a128.007 128.007 0 0 1 .899-25.677c.397-2.915-1.703-5.685-4.696-6.18C5.2-.145 2.452 1.825 2.055 4.742a138.246 138.246 0 0 0-.97 27.779c.191 2.962 2.794 5.288 5.797 5.204 1.897-.061 3.501-1.058 4.385-2.527M185.155 149.98c4.335-7.215 13.849-9.49 21.208-5.068 7.36 4.422 9.819 13.89 5.483 21.106-4.336 7.217-13.85 9.49-21.21 5.069-7.36-4.422-9.818-13.89-5.481-21.106m35.632 21.41c7.241-12.052 3.135-27.865-9.154-35.25-12.29-7.383-28.178-3.584-35.419 8.467-7.242 12.053-3.137 27.865 9.152 35.25 12.289 7.383 28.179 3.585 35.42-8.468"/>
    </g>
</svg>
