<svg xmlns="http://www.w3.org/2000/svg" width="286" height="295" viewBox="0 0 286 295">
    <g fill="#31006D" fill-rule="evenodd">
        <path d="M38.25.535c1.528-.882 3.538-.707 4.998.59 1.873 1.649 2.163 4.475.65 6.313a145.37 145.37 0 0 0-12.017 16.967c-1.244 2.054-3.916 2.596-5.972 1.223-2.054-1.388-2.716-4.157-1.473-6.21A156.61 156.61 0 0 1 37.137 1.486c.322-.395.7-.713 1.113-.95M16.443 38.558a4.268 4.268 0 0 1 3.948-.18c2.146.988 3.095 3.548 2.103 5.69a153.387 153.387 0 0 0-7.317 19.283 4.272 4.272 0 0 1-5.347 2.853 4.306 4.306 0 0 1-2.861-5.362A161.678 161.678 0 0 1 14.7 40.476a4.251 4.251 0 0 1 1.742-1.918M4.437 78.906a4.223 4.223 0 0 1 2.862-.495c2.39.428 4.036 2.727 3.687 5.14a157.795 157.795 0 0 0-1.617 21.204c-.024 2.456-1.993 4.363-4.41 4.267-2.405-.095-4.343-2.151-4.315-4.601.064-7.487.637-15.024 1.706-22.408a4.257 4.257 0 0 1 2.087-3.107M3.228 121.316a4.358 4.358 0 0 1 1.69-.56 4.353 4.353 0 0 1 4.83 3.833 152.11 152.11 0 0 0 3.76 20.607c.595 2.326-.82 4.706-3.16 5.309a4.353 4.353 0 0 1-5.313-3.127 161.581 161.581 0 0 1-3.98-21.784 4.382 4.382 0 0 1 2.173-4.278M13.452 163.841a4.282 4.282 0 0 1 6.11 2.082 152.525 152.525 0 0 0 9.074 18.493l.152.263a4.287 4.287 0 0 1-7.424 4.286l-.137-.236a161.256 161.256 0 0 1-9.594-19.556 4.279 4.279 0 0 1 1.82-5.332M34.097 199.2c1.698-.98 3.974-.46 5.31 1.308a168.531 168.531 0 0 0 13.705 15.916c1.69 1.719 1.827 4.436.322 6.062-1.507 1.63-4.092 1.554-5.776-.166a177.378 177.378 0 0 1-14.492-16.825c-1.46-1.925-1.247-4.61.475-5.983.15-.116.298-.22.456-.311M65.18 229.463c1.402-.81 3.231-.73 4.65.353a157.61 157.61 0 0 0 17.426 11.521c2.082 1.183 2.894 3.832 1.814 5.914-1.082 2.092-3.646 2.819-5.73 1.634a165.208 165.208 0 0 1-18.418-12.174c-1.915-1.46-2.37-4.186-1.011-6.095a4.013 4.013 0 0 1 1.268-1.153M150.256 258.666a153.37 153.37 0 0 0 17.715.503c2.455-.069 4.567 1.901 4.722 4.41.162 2.508-1.699 4.596-4.15 4.67-5.968.177-12.001.013-18.002-.47-1.539-.126-1.511-9.218-.285-9.113M278.983 205.844c1.577-.91 3.595-.838 5.013.324 1.804 1.475 1.96 4.156.351 5.983A173.083 173.083 0 0 1 268.431 228c-1.842 1.61-4.605 1.523-6.174-.194-1.569-1.708-1.344-4.405.497-6.015a162.38 162.38 0 0 0 15.057-14.989 4.73 4.73 0 0 1 1.172-.957M187.74 258.165a4.658 4.658 0 0 1 1.35-.523 160.98 160.98 0 0 0 19.715-5.567c2.23-.782 4.554.257 5.2 2.33.645 2.068-.635 4.382-2.86 5.166a170.965 170.965 0 0 1-20.84 5.886c-2.293.495-4.424-.855-4.758-3.015-.262-1.701.667-3.396 2.194-4.277M246.338 234.448a4.312 4.312 0 0 1 4.562 7.314 163.659 163.659 0 0 1-18.982 10.999 4.312 4.312 0 1 1-3.813-7.736 156.443 156.443 0 0 0 17.976-10.417c.087-.056.17-.11.257-.16"/>
        <path d="M133.892 283.212c11.044-6.376 14.842-20.545 8.468-31.586-6.374-11.04-20.545-14.836-31.588-8.46-11.038 6.373-14.833 20.54-8.459 31.58 6.375 11.042 20.542 14.839 31.58 8.466m-27.06-46.87c14.805-8.547 33.804-3.459 42.35 11.344 8.547 14.804 3.455 33.802-11.35 42.35-14.802 8.545-33.797 3.454-42.343-11.35-8.547-14.803-3.459-33.798 11.342-42.343"/>
    </g>
</svg>
