<svg xmlns="http://www.w3.org/2000/svg" width="182" height="95" viewBox="0 0 182 95">
    <path fill="#003A47" fill-rule="nonzero" d="M174.925 14.616l-15.687 6.552a2 2 0 0 1-1.541-3.691l15.687-6.552-3.083-7.382a2 2 0 0 1 3.69-1.541l7.708 18.455a2 2 0 0 1-3.69 1.541l-3.084-7.382zM7.075 80.384l15.9-6.64a2 2 0 0 1 1.541 3.69l-15.9 6.64 3.083 7.383a2 2 0 0 1-3.69 1.541L.3 74.543a2 2 0 0 1 3.69-1.541l3.084 7.382zm137.703-57.512a2 2 0 1 1 1.542 3.691l-17.533 7.323a2 2 0 0 1-1.541-3.691l17.532-7.323zm-30.45 12.718a2 2 0 0 1 1.54 3.691l-17.531 7.322a2 2 0 0 1-1.542-3.69l17.532-7.323zM83.875 48.308a2 2 0 0 1 1.542 3.69l-17.532 7.323a2 2 0 0 1-1.542-3.69l17.532-7.323zm-30.45 12.717a2 2 0 0 1 1.541 3.691L37.435 72.04a2 2 0 1 1-1.542-3.691l17.533-7.323z"/>
</svg>
