<svg xmlns="http://www.w3.org/2000/svg" width="41" height="333" viewBox="0 0 41 333">
    <g fill="none" fill-rule="evenodd" stroke="#EE7719" stroke-linecap="round" stroke-linejoin="round" stroke-width="6">
        <path d="M17.72 132c7.908 2.442 14.764 7.725 14.11 16.65-.614 8.374-8.617 12.884-16.442 12.82-5.489-.046-8.67 5.88-4.253 9.815 4.183 3.726 8.642 7.072 13.135 10.426 2.912 2.176 8.307 5.313 9.308 9.07 1.65 6.188-15.508 13.13-19.466 17.077-5.023 5.013-1.917 14.268 1.423 19.144 3.499 5.117 8.642 8.817 13.282 12.948-5.911 1.969-11.362 4.759-15.405 9.93-1.961 2.51-1.356 5.726.926 7.767 6.445 5.765 12.78 13.258 14.955 21.77 2.767 10.839-7.862 12.466-16.475 12.638-4.853.1-6.523 7.23-2.752 9.826C21.338 309.636 25.42 323.562 38 330"/>
        <path d="M24.263 3.5c2.856 2.179 8.146 5.32 9.128 9.083C35.01 18.78 18.183 25.73 14.3 29.685c-4.926 5.02-1.88 14.288 1.396 19.172 3.43 5.124 8.475 8.83 13.025 12.966-5.797 1.972-11.142 4.766-15.107 9.944-1.924 2.514-1.33 5.735.907 7.779 6.32 5.773 12.534 13.277 14.667 21.801 2.713 10.855-7.71 12.484-16.157 12.657-4.76.1-12.237 7.769-8.539 10.37 11.055 7.766 1.01 1.679 13.346 8.126"/>
    </g>
</svg>
