<svg xmlns="http://www.w3.org/2000/svg" width="90" height="20" viewBox="0 0 90 20">
    <path fill="#EE7719" fill-rule="evenodd" stroke="#EE7719" stroke-width="2" d="M1.784 15.252c3.984-3.179 6.854-6.985 9.29-11.233.653-1.14 2.154-1.252 3.305-.785 6.006 2.433 10.158 7.041 15.233 10.642 2.414-2.393 4.682-4.916 7.105-7.3 1.648-1.623 5.092-5.702 8.02-5.392 6.62.7 11.443 7.44 16.13 12.005C63.578 8.197 67.047.903 73.256 1c7.5.117 10.716 8.802 15.08 13.084 2.112 2.069-1.298 5.173-3.416 3.095-3.592-3.52-5.756-8.532-10.014-11.46-4.189-2.88-9.854 9.953-11.325 12.185-.846 1.283-2.613 1.353-3.795.443-2.524-1.944-4.679-4.304-6.953-6.478-1.139-1.088-6.05-6.598-7.795-6.334-2.347.357-5.622 4.834-7.1 6.334-2.115 2.147-4.105 4.408-6.313 6.478-.705.66-2.061.896-2.928.343-5.1-3.255-9.161-7.797-14.541-10.639-2.398 3.844-5.252 7.343-8.953 10.296-2.329 1.858-5.76-1.226-3.418-3.096"/>
</svg>
