<svg xmlns="http://www.w3.org/2000/svg" width="123" height="458" viewBox="0 0 123 458">
    <path fill="#31006D" fill-rule="nonzero" d="M21.394 9.244l5.204 26.493.578 2.944-5.887 1.156-.578-2.943L15.507 10.4 4.713 12.52l-2.944.578L.613 7.211l2.944-.579 27.475-5.396 2.944-.578 1.156 5.887-2.944.578-10.794 2.12zm80.212 439.512l-5.73-29.174-.579-2.944 5.888-1.156.578 2.944 5.73 29.174 10.794-2.12 2.944-.578 1.156 5.887-2.944.579-27.475 5.396-2.944.578-1.156-5.887 2.944-.578 10.794-2.12zM26.493 66.331l-.579-2.944 5.888-1.156.578 2.944 5.782 29.437.578 2.944-5.887 1.157-.579-2.944-5.781-29.438zm11.563 58.875l-.578-2.943 5.888-1.157.578 2.944 5.782 29.438.578 2.943-5.888 1.157-.578-2.944-5.782-29.438zm11.564 58.875l-.578-2.943 5.887-1.157.579 2.944 5.782 29.438.578 2.943-5.888 1.157-.578-2.944-5.782-29.438zm11.564 58.876l-.578-2.944 5.887-1.157.578 2.944 5.782 29.438.579 2.944-5.888 1.156-.578-2.944-5.782-29.437zm11.564 58.875l-.578-2.944 5.887-1.156.578 2.943 5.782 29.438.578 2.944-5.887 1.156-.578-2.944-5.782-29.437zm11.563 58.875l-.578-2.944 5.888-1.156.578 2.943 5.782 29.438.578 2.944-5.887 1.156-.579-2.944-5.782-29.437z"/>
</svg>
