<svg xmlns="http://www.w3.org/2000/svg" width="32" height="32" viewBox="0 0 32 32">
    <path fill="#003A47" fill-rule="nonzero" d="M28.59 31.407c.781.79 2.043.79 2.824 0a2.04 2.04 0 0 0 0-2.86l-6.163-6.16a13.953 13.953 0 0 0 2.775-8.373C28.026 6.274 21.752 0 14.013 0 6.273 0 0 6.274 0 14.014c0 7.74 6.274 14.014 14.013 14.014 3.15 0 6.058-1.04 8.399-2.794l6.178 6.173zM4.004 14.014c0-5.528 4.481-10.01 10.01-10.01 5.527 0 10.008 4.482 10.008 10.01 0 5.529-4.48 10.01-10.009 10.01-5.528 0-10.01-4.481-10.01-10.01z"/>
</svg>
