<svg xmlns="http://www.w3.org/2000/svg" width="70" height="16" viewBox="0 0 70 16">
    <path fill="#003A47" fill-rule="evenodd" d="M68.418 12.316C65.293 9.57 63.042 6.28 61.131 2.61c-.512-.986-1.69-1.082-2.593-.678-4.712 2.102-7.969 6.085-11.95 9.196-1.893-2.068-3.672-4.248-5.574-6.308C39.721 3.416 37.02-.109 34.723.16c-5.193.605-8.977 6.43-12.654 10.374C19.944 6.22 17.223-.084 12.352.001 6.469.102 3.945 7.607.522 11.307c-1.657 1.789 1.018 4.471 2.68 2.676 2.817-3.043 4.515-7.373 7.855-9.904 3.286-2.488 7.73 8.601 8.884 10.53.664 1.109 2.05 1.17 2.977.382 1.98-1.68 3.67-3.72 5.455-5.597.893-.94 4.746-5.702 6.114-5.474 1.842.308 4.41 4.177 5.571 5.474 1.659 1.855 3.22 3.81 4.952 5.597.553.572 1.617.775 2.297.297 4.001-2.813 7.187-6.738 11.407-9.194 1.881 3.322 4.12 6.346 7.024 8.897 1.826 1.606 4.518-1.06 2.68-2.675"/>
</svg>
